<svg width="550" height="490" version="1.1" viewBox="0 0 146 130" xmlns="http://www.w3.org/2000/svg">
<g fill="none" stroke-linecap="round">
<path d="m82 22 5.9-10" stroke="#ff2a00" stroke-width="5.6"/>
<path d="m99 38 10-6" stroke="#ff2a00" stroke-width="5.6"/>
<path d="m60 15 .28-12" stroke="#ff2a00" stroke-width="5.6"/>
<path d="m38 20-6.2-10" stroke="#ff2a00" stroke-width="5.6"/>
<path d="m23 34-10-5.5" stroke="#ff2a00" stroke-width="5.6"/>
<path d="m17 56-12-.17" stroke="#ff2a00" stroke-width="5.6"/>
<path d="m20 77-10 6" stroke="#ff2a00" stroke-width="5.6"/>
<path d="m52 79c6.1-16 22-13 26-11 9.1-12 17-14 27-12 11 2.8 21 16 16 29 20 6.7 26 31 0 40-27 .3-27 .2-79-.13-40-16-9.1-53 10-46z" stroke="#f00" stroke-linejoin="round" stroke-width="8.2"/>
<path d="m30 72c-.18-.47-.35-.95-.52-1.4-1.3-4.2-1.9-8.8-1.4-14 1.9-18 18-31 37-30 12 1.2 21 8.2 26 18 .006.025.012.05.018.075" stroke="#f30" stroke-linejoin="round" stroke-width="8.2"/>
</g>
</svg>
